<svg width="16" height="16" viewBox="0 0 16 16" fill="none" xmlns="http://www.w3.org/2000/svg">
<path d="M8.82241 0.000984283C9.40617 -0.00125582 9.98993 0.00461127 10.5735 0.0185837L10.7287 0.0241835C10.9079 0.0305833 11.0847 0.038583 11.2983 0.0481827C12.1494 0.0881813 12.7302 0.222577 13.2398 0.42017C13.7678 0.623363 14.2125 0.898554 14.6573 1.34334C15.064 1.74301 15.3787 2.22647 15.5797 2.76009C15.7773 3.26967 15.9116 3.85125 15.9516 4.70242C15.9612 4.91522 15.9692 5.09281 15.9756 5.27201L15.9804 5.4272C15.9947 6.01053 16.0008 6.59404 15.9988 7.17754L15.9996 7.77432V8.82228C16.0016 9.40605 15.9955 9.98982 15.9812 10.5734L15.9764 10.7286C15.97 10.9078 15.962 11.0846 15.9524 11.2982C15.9124 12.1494 15.7765 12.7302 15.5797 13.2397C15.3794 13.7739 15.0646 14.2578 14.6573 14.6573C14.2573 15.0639 13.7736 15.3787 13.2398 15.5797C12.7302 15.7772 12.1494 15.9116 11.2983 15.9516C11.0847 15.9612 10.9079 15.9692 10.7287 15.9756L10.5735 15.9804C9.98993 15.9947 9.40617 16.0008 8.82241 15.9988L8.22564 15.9996H7.17849C6.59473 16.0016 6.01097 15.9955 5.42738 15.9812L5.27219 15.9764C5.08229 15.9696 4.89243 15.9616 4.70262 15.9524C3.85146 15.9124 3.27069 15.7764 2.76032 15.5797C2.22649 15.3791 1.74296 15.0643 1.34359 14.6573C0.93645 14.2575 0.621409 13.7738 0.42044 13.2397C0.22285 12.7302 0.088457 12.1494 0.0484591 11.2982C0.0395499 11.1084 0.0315502 10.9185 0.0244603 10.7286L0.0204606 10.5734C0.00571225 9.98983 -0.000954789 9.40606 0.000461577 8.82228V7.17754C-0.00177108 6.59404 0.00409591 6.01054 0.0180607 5.4272L0.0236604 5.27201C0.0300601 5.09281 0.0380597 4.91522 0.0476592 4.70242C0.0876571 3.85045 0.22205 3.27047 0.41964 2.76009C0.620728 2.2262 0.936385 1.74288 1.34439 1.34414C1.74349 0.936754 2.22672 0.621421 2.76032 0.42017C3.27069 0.222577 3.85066 0.0881813 4.70262 0.0481827L5.27219 0.0241835L5.42738 0.0201838C6.0107 0.00544252 6.59419 -0.00122464 7.17769 0.000184368L8.82241 0.000984283ZM8.00005 4.00085C7.47008 3.99335 6.94391 4.09126 6.45211 4.28889C5.96031 4.48652 5.5127 4.77992 5.13527 5.15205C4.75785 5.52418 4.45815 5.96761 4.25359 6.45657C4.04903 6.94554 3.94369 7.47028 3.94369 8.00031C3.94369 8.53034 4.04903 9.05509 4.25359 9.54405C4.45815 10.033 4.75785 10.4764 5.13527 10.8486C5.5127 11.2207 5.96031 11.5141 6.45211 11.7117C6.94391 11.9094 7.47008 12.0073 8.00005 11.9998C9.06086 11.9998 10.0782 11.5784 10.8283 10.8282C11.5784 10.0781 11.9998 9.06074 11.9998 7.99991C11.9998 6.93908 11.5784 5.9217 10.8283 5.17158C10.0782 4.42146 9.06086 4.00085 8.00005 4.00085ZM8.00005 5.60079C8.31884 5.59492 8.6356 5.65263 8.93184 5.77055C9.22808 5.88848 9.49784 6.06425 9.72538 6.28761C9.95293 6.51096 10.1337 6.77742 10.2571 7.07142C10.3805 7.36541 10.4441 7.68106 10.4441 7.9999C10.4442 8.31875 10.3807 8.63442 10.2574 8.92846C10.1341 9.22249 9.95342 9.48901 9.72596 9.71244C9.49849 9.93587 9.22878 10.1117 8.93258 10.2298C8.63639 10.3478 8.31964 10.4056 8.00085 10.3998C7.36436 10.3998 6.75395 10.147 6.30388 9.69691C5.85382 9.24684 5.60097 8.63641 5.60097 7.99991C5.60097 7.36341 5.85382 6.75299 6.30388 6.30291C6.75395 5.85284 7.36436 5.59999 8.00085 5.59999L8.00005 5.60079ZM12.1998 2.80089C11.9418 2.81122 11.6977 2.92101 11.5188 3.10726C11.3398 3.29351 11.2399 3.54177 11.2399 3.80006C11.2399 4.05834 11.3398 4.3066 11.5188 4.49285C11.6977 4.6791 11.9418 4.78889 12.1998 4.79922C12.465 4.79922 12.7194 4.69387 12.9069 4.50634C13.0944 4.31881 13.1998 4.06446 13.1998 3.79925C13.1998 3.53405 13.0944 3.2797 12.9069 3.09217C12.7194 2.90464 12.465 2.79929 12.1998 2.79929V2.80089Z" fill="#203E7E"/>
</svg>
