<svg width="18" height="12" viewBox="0 0 18 12" fill="none" xmlns="http://www.w3.org/2000/svg">
<path d="M7.2 8.57143L11.871 6L7.2 3.42857V8.57143ZM17.604 1.86C17.721 2.26286 17.802 2.80286 17.856 3.48857C17.919 4.17429 17.946 4.76571 17.946 5.28L18 6C18 7.87714 17.856 9.25714 17.604 10.14C17.379 10.9114 16.857 11.4086 16.047 11.6229C15.624 11.7343 14.85 11.8114 13.662 11.8629C12.492 11.9229 11.421 11.9486 10.431 11.9486L9 12C5.229 12 2.88 11.8629 1.953 11.6229C1.143 11.4086 0.621 10.9114 0.396 10.14C0.279 9.73714 0.198 9.19714 0.144 8.51143C0.0810001 7.82571 0.0539999 7.23429 0.0539999 6.72L0 6C0 4.12286 0.144 2.74286 0.396 1.86C0.621 1.08857 1.143 0.591429 1.953 0.377143C2.376 0.265714 3.15 0.188571 4.338 0.137143C5.508 0.0771427 6.579 0.0514285 7.569 0.0514285L9 0C12.771 0 15.12 0.137143 16.047 0.377143C16.857 0.591429 17.379 1.08857 17.604 1.86Z" fill="#203E7E"/>
</svg>
