<svg width="67" height="44" viewBox="0 0 67 44" fill="none" xmlns="http://www.w3.org/2000/svg">
<path d="M55.5 0C56.9587 0 58.3576 0.579462 59.3891 1.61091C60.4205 2.64236 61 4.04131 61 5.5V33C61 36.0525 58.5525 38.5 55.5 38.5H66.5V44H0.5V38.5H11.5C10.0413 38.5 8.64236 37.9205 7.61091 36.8891C6.57946 35.8576 6 34.4587 6 33V5.5C6 2.4475 8.4475 0 11.5 0H55.5ZM55.5 5.5H11.5V33H55.5V5.5ZM33.5 22C39.5775 22 44.5 24.475 44.5 27.5V30.25H22.5V27.5C22.5 24.475 27.4225 22 33.5 22ZM33.5 8.25C34.9587 8.25 36.3576 8.82946 37.3891 9.86091C38.4205 10.8924 39 12.2913 39 13.75C39 15.2087 38.4205 16.6076 37.3891 17.6391C36.3576 18.6705 34.9587 19.25 33.5 19.25C30.4475 19.25 28 16.8025 28 13.75C28 10.6975 30.475 8.25 33.5 8.25Z" fill="#52C4CE"/>
</svg>
