<svg width="39" height="60" viewBox="0 0 39 60" fill="none" xmlns="http://www.w3.org/2000/svg">
<path d="M35 0H4C2.9395 0.00119105 1.92278 0.423001 1.17289 1.17289C0.423001 1.92278 0.00119105 2.9395 0 4V56C0.00119105 57.0605 0.423001 58.0772 1.17289 58.8271C1.92278 59.577 2.9395 59.9988 4 60H35C36.0605 59.9988 37.0772 59.577 37.8271 58.8271C38.577 58.0772 38.9988 57.0605 39 56V4C38.9988 2.9395 38.577 1.92278 37.8271 1.17289C37.0772 0.423001 36.0605 0.00119105 35 0ZM35 4V8H4V4H35ZM35 12L35.0014 40H4V12H35ZM4 56V44H35.002V56H4Z" fill="#52C4CE"/>
<path d="M17.5 48H21.5V52H17.5V48Z" fill="#52C4CE"/>
</svg>
