<svg width="63" height="60" viewBox="0 0 63 60" fill="none" xmlns="http://www.w3.org/2000/svg">
<path d="M2.5 16.7046V40.232C2.5 41.792 3.11803 43.2881 4.21813 44.3911C5.31824 45.4942 6.8103 46.1139 8.36608 46.1139H11.2991M2.5 16.7046V10.8228C2.5 9.26281 3.11803 7.76674 4.21813 6.66368C5.31824 5.56062 6.8103 4.94093 8.36608 4.94093H14.2322M2.5 16.7046C5.61156 16.7046 8.59568 15.4652 10.7959 13.2591C12.9961 11.053 14.2322 8.06085 14.2322 4.94093M14.2322 4.94093H52.3617M25.2721 31.4093C23.7736 29.7284 22.9737 27.5361 23.0366 25.2825C23.0995 23.0288 24.0205 20.8848 25.6104 19.2907C27.2003 17.6965 29.3385 16.773 31.5861 16.71C33.8337 16.6469 36.0201 17.449 37.6965 18.9515M2.5 54.9367L55.2947 2M58.873 49.193L60.4833 30.7799C60.7032 28.236 58.7293 25.9862 56.072 25.7509L53.6669 25.5421M48.449 57.557L53.2592 57.9805C55.9165 58.2129 58.2512 56.3395 58.4741 53.7985L58.876 49.193C53.5584 48.7284 48.8919 52.4722 48.449 57.557ZM48.449 57.557L17.1652 54.8131M29.9151 44.5875C31.1147 46.1168 32.6722 46.8962 34.8133 47.0844C38.7993 47.4344 42.3014 44.6258 42.6328 40.8114C42.8117 38.7645 42.3835 37.0794 41.0167 35.6854" stroke="#52C4CE" stroke-width="4" stroke-linecap="round" stroke-linejoin="round"/>
</svg>
