<svg width="65" height="49" viewBox="0 0 65 49" fill="none" xmlns="http://www.w3.org/2000/svg">
<path d="M0.5 0V4.9H54.6538V44.1H20.1923V49H64.5V44.1H59.5769V0H0.5ZM10.3511 7.35C7.74205 7.35903 5.24241 8.39428 3.39708 10.23C1.55175 12.0658 0.510379 14.5532 0.5 17.15C0.5 22.5376 4.94062 26.95 10.3511 26.95C12.9588 26.9397 15.4567 25.9037 17.3002 24.0679C19.1436 22.2322 20.1832 19.7455 20.1923 17.15C20.1923 11.7674 15.7566 7.35 10.3511 7.35ZM25.1154 9.8V14.7H37.4231V9.8H25.1154ZM42.3462 9.8V14.7H49.7308V9.8H42.3462ZM10.3511 12.25C13.0932 12.25 15.2692 14.4134 15.2692 17.15C15.2692 19.894 13.0957 22.05 10.3511 22.05C7.59415 22.05 5.42308 19.894 5.42308 17.15C5.42308 14.4134 7.59662 12.25 10.3511 12.25ZM25.1154 19.6V24.5H49.7308V19.6H25.1154ZM0.5 29.4V49H5.42308V34.3H12.8077V49H17.7308V35.9121L22.8114 38.5875C24.2514 39.347 25.9818 39.3446 27.4194 38.5875V38.5924L36.1086 34.0183L33.812 29.6818L25.1203 34.2559L17.4994 30.2526C16.4358 29.6933 15.2512 29.4007 14.0483 29.4H0.5Z" fill="#52C4CE"/>
</svg>
