<svg width="51" height="50" viewBox="0 0 51 50" fill="none" xmlns="http://www.w3.org/2000/svg">
<path d="M25.5 0C39.3075 0 50.5 11.1925 50.5 25C50.5 38.8075 39.3075 50 25.5 50C11.6925 50 0.5 38.8075 0.5 25C0.5 11.1925 11.6925 0 25.5 0ZM25.5 5C20.1957 5 15.1086 7.10714 11.3579 10.8579C7.60714 14.6086 5.5 19.6957 5.5 25C5.5 30.3043 7.60714 35.3914 11.3579 39.1421C15.1086 42.8929 20.1957 45 25.5 45C30.8043 45 35.8914 42.8929 39.6421 39.1421C43.3929 35.3914 45.5 30.3043 45.5 25C45.5 19.6957 43.3929 14.6086 39.6421 10.8579C35.8914 7.10714 30.8043 5 25.5 5ZM25.5 10C26.1123 10.0001 26.7033 10.2249 27.1609 10.6318C27.6185 11.0387 27.9109 11.5994 27.9825 12.2075L28 12.5V23.965L34.7675 30.7325C35.2159 31.1824 35.4762 31.7861 35.4956 32.421C35.515 33.0558 35.292 33.6743 34.8719 34.1507C34.4518 34.6271 33.8661 34.9258 33.2338 34.986C32.6015 35.0462 31.97 34.8635 31.4675 34.475L31.2325 34.2675L23.7325 26.7675C23.3439 26.3786 23.0944 25.8725 23.0225 25.3275L23 25V12.5C23 11.837 23.2634 11.2011 23.7322 10.7322C24.2011 10.2634 24.837 10 25.5 10Z" fill="#52C4CE"/>
</svg>
