<svg width="57" height="45" viewBox="0 0 57 45" fill="none" xmlns="http://www.w3.org/2000/svg">
<path d="M2.76263 9.48855e-05C2.16254 9.48855e-05 1.58703 0.237148 1.16271 0.659104C0.738383 1.08106 0.5 1.65335 0.5 2.25009C0.5 2.84683 0.738383 3.41912 1.16271 3.84108C1.58703 4.26303 2.16254 4.50009 2.76263 4.50009H7.78566L13.7228 28.125C14.2274 30.1275 16.0307 31.5 18.1055 31.5H46.3204C48.3636 31.5 50.099 30.15 50.6353 28.1925L56.5 6.75008H51.7621L46.3182 27H18.1032L12.1684 3.37509C11.9232 2.40585 11.3581 1.54647 10.5634 0.934549C9.76881 0.32263 8.79067 -0.00641909 7.78566 9.48855e-05H2.76263ZM43.4899 31.5C39.7679 31.5 36.702 34.5488 36.702 38.25C36.702 41.9513 39.7679 45 43.4899 45C47.2119 45 50.2778 41.9513 50.2778 38.25C50.2778 34.5488 47.2119 31.5 43.4899 31.5ZM23.1263 31.5C19.4042 31.5 16.3384 34.5488 16.3384 38.25C16.3384 41.9513 19.4042 45 23.1263 45C26.8483 45 29.9141 41.9513 29.9141 38.25C29.9141 34.5488 26.8483 31.5 23.1263 31.5ZM29.9141 9.48855e-05V11.2501H23.1263L32.1768 20.2501L41.2273 11.2501H34.4394V9.48855e-05H29.9141ZM23.1263 36C24.4024 36 25.3889 36.981 25.3889 38.25C25.3889 39.519 24.4024 40.5 23.1263 40.5C21.8501 40.5 20.8636 39.519 20.8636 38.25C20.8636 36.981 21.8501 36 23.1263 36ZM43.4899 36C44.766 36 45.7525 36.981 45.7525 38.25C45.7525 39.519 44.766 40.5 43.4899 40.5C42.2138 40.5 41.2273 39.519 41.2273 38.25C41.2273 36.981 42.2138 36 43.4899 36Z" fill="white"/>
</svg>
