<svg width="69" height="69" viewBox="0 0 69 69" fill="none" xmlns="http://www.w3.org/2000/svg">
<path d="M34.4965 0C53.5524 0 69 15.4476 69 34.5034C69 53.5559 53.5524 69 34.4965 69C15.4407 69.0034 5.77784e-07 53.5559 5.77784e-07 34.5034C-0.00344908 15.4476 15.4407 0 34.4965 0ZM34.4965 5.17448C30.6185 5.13242 26.7706 5.85993 23.1755 7.31489C19.5805 8.76986 16.3097 10.9234 13.5525 13.6509C10.7953 16.3783 8.60644 19.6255 7.11257 23.2046C5.6187 26.7836 4.84951 30.6234 4.84951 34.5017C4.84951 38.38 5.6187 42.2198 7.11257 45.7989C8.60644 49.3779 10.7953 52.6251 13.5525 55.3526C16.3097 58.08 19.5805 60.2336 23.1755 61.6885C26.7706 63.1435 30.6185 63.871 34.4965 63.829C42.2195 63.7452 49.5977 60.6185 55.0293 55.1277C60.4609 49.6368 63.5074 42.2252 63.5074 34.5017C63.5074 26.7783 60.4609 19.3666 55.0293 13.8758C49.5977 8.38495 42.2195 5.25824 34.4965 5.17448ZM34.4965 39.671C40.1229 39.671 45.3975 41.9271 49.2645 45.8632C49.516 46.1025 49.7167 46.3901 49.8546 46.7086C49.9926 47.0272 50.0651 47.3703 50.0677 47.7174C50.0704 48.0646 50.0031 48.4087 49.8699 48.7293C49.7368 49.0499 49.5405 49.3405 49.2927 49.5836C49.0449 49.8268 48.7507 50.0176 48.4276 50.1447C48.1046 50.2718 47.7592 50.3325 47.4122 50.3233C47.0651 50.3142 46.7235 50.2352 46.4076 50.0913C46.0917 49.9473 45.808 49.7412 45.5734 49.4853C44.1302 48.0125 42.4071 46.843 40.5055 46.0456C38.6039 45.2482 36.562 44.839 34.5 44.8421C32.4324 44.8385 30.3851 45.2494 28.479 46.0505C26.5729 46.8515 24.8468 48.0265 23.4025 49.506C23.1646 49.7488 22.8813 49.9424 22.5686 50.0757C22.256 50.209 21.9201 50.2795 21.5803 50.283C21.2404 50.2865 20.9032 50.2231 20.5878 50.0963C20.2725 49.9695 19.9852 49.7818 19.7424 49.5439C19.4996 49.3061 19.306 49.0228 19.1726 48.7101C19.0393 48.3975 18.9689 48.0616 18.9654 47.7218C18.9618 47.3819 19.0253 47.0447 19.1521 46.7293C19.2789 46.414 19.4666 46.1267 19.7044 45.8839C21.6306 43.9134 23.9317 42.3486 26.4722 41.2816C29.0127 40.2145 31.7411 39.6669 34.4965 39.671ZM24.1476 23.2921C24.7239 23.2758 25.2976 23.3752 25.8348 23.5845C26.372 23.7938 26.8618 24.1086 27.2752 24.5105C27.6886 24.9124 28.0172 25.3931 28.2416 25.9241C28.466 26.4552 28.5816 27.0259 28.5816 27.6024C28.5816 28.1789 28.466 28.7496 28.2416 29.2807C28.0172 29.8118 27.6886 30.2925 27.2752 30.6943C26.8618 31.0962 26.372 31.4111 25.8348 31.6204C25.2976 31.8296 24.7239 31.9291 24.1476 31.9128C23.0255 31.881 21.9601 31.413 21.1776 30.6081C20.3952 29.8032 19.9575 28.7249 19.9575 27.6024C19.9575 26.4799 20.3952 25.4016 21.1776 24.5967C21.9601 23.7919 23.0255 23.3238 24.1476 23.2921ZM44.8455 23.2921C45.4218 23.2758 45.9955 23.3752 46.5327 23.5845C47.07 23.7938 47.5597 24.1086 47.9731 24.5105C48.3865 24.9124 48.7151 25.3931 48.9395 25.9241C49.1639 26.4552 49.2795 27.0259 49.2795 27.6024C49.2795 28.1789 49.1639 28.7496 48.9395 29.2807C48.7151 29.8118 48.3865 30.2925 47.9731 30.6943C47.5597 31.0962 47.07 31.4111 46.5327 31.6204C45.9955 31.8296 45.4218 31.9291 44.8455 31.9128C43.7234 31.881 42.658 31.413 41.8756 30.6081C41.0931 29.8032 40.6554 28.7249 40.6554 27.6024C40.6554 26.4799 41.0931 25.4016 41.8756 24.5967C42.658 23.7919 43.7234 23.3238 44.8455 23.2921Z" fill="white"/>
</svg>
