<svg width="69" height="69" viewBox="0 0 69 69" fill="none" xmlns="http://www.w3.org/2000/svg">
<path d="M34.5 0C53.5543 0 69 15.4457 69 34.5C69 53.5543 53.5543 69 34.5 69C15.4457 69 0 53.5543 0 34.5C0 15.4457 15.4457 0 34.5 0ZM34.5 6.9C27.18 6.9 20.1599 9.80785 14.9839 14.9839C9.80785 20.1599 6.9 27.18 6.9 34.5C6.9 41.82 9.80785 48.8401 14.9839 54.0161C20.1599 59.1922 27.18 62.1 34.5 62.1C41.82 62.1 48.8401 59.1922 54.0161 54.0161C59.1922 48.8401 62.1 41.82 62.1 34.5C62.1 27.18 59.1922 20.1599 54.0161 14.9839C48.8401 9.80785 41.82 6.9 34.5 6.9ZM44.16 40.9067C44.4819 40.5819 44.8651 40.3245 45.2873 40.1491C45.7096 39.9738 46.1625 39.8842 46.6197 39.8855C47.0769 39.8867 47.5293 39.9789 47.9506 40.1565C48.3719 40.3341 48.7537 40.5937 49.0737 40.9202C49.3938 41.2467 49.6458 41.6335 49.8151 42.0583C49.9843 42.483 50.0675 42.9371 50.0597 43.3942C50.0519 43.8514 49.9533 44.3024 49.7697 44.7211C49.5861 45.1398 49.321 45.5179 48.99 45.8333C45.1238 49.6309 39.9194 51.7561 34.5 51.75C29.0806 51.7561 23.8762 49.6309 20.01 45.8333C19.3719 45.1895 19.0127 44.3204 19.0102 43.414C19.0077 42.5075 19.362 41.6365 19.9966 40.9892C20.6312 40.3419 21.4951 39.9704 22.4014 39.9549C23.3077 39.9395 24.1837 40.2814 24.84 40.9067C27.4165 43.4397 30.8869 44.8563 34.5 44.85C38.2605 44.85 41.6657 43.3493 44.16 40.9067ZM22.425 20.7C23.7975 20.7 25.1138 21.2452 26.0843 22.2157C27.0548 23.1862 27.6 24.5025 27.6 25.875C27.6 27.2475 27.0548 28.5638 26.0843 29.5343C25.1138 30.5048 23.7975 31.05 22.425 31.05C21.0525 31.05 19.7362 30.5048 18.7657 29.5343C17.7952 28.5638 17.25 27.2475 17.25 25.875C17.25 24.5025 17.7952 23.1862 18.7657 22.2157C19.7362 21.2452 21.0525 20.7 22.425 20.7ZM46.575 20.7C47.9475 20.7 49.2638 21.2452 50.2343 22.2157C51.2048 23.1862 51.75 24.5025 51.75 25.875C51.75 27.2475 51.2048 28.5638 50.2343 29.5343C49.2638 30.5048 47.9475 31.05 46.575 31.05C45.2025 31.05 43.8862 30.5048 42.9157 29.5343C41.9452 28.5638 41.4 27.2475 41.4 25.875C41.4 24.5025 41.9452 23.1862 42.9157 22.2157C43.8862 21.2452 45.2025 20.7 46.575 20.7Z" fill="#52C4CE"/>
</svg>
