<svg width="20" height="19" viewBox="0 0 20 19" fill="none" xmlns="http://www.w3.org/2000/svg">
<path d="M6.92694 6.13217L9.26556 1.4509C9.33363 1.31542 9.43833 1.20147 9.56791 1.12183C9.6975 1.04219 9.84684 1 9.99919 1C10.1515 1 10.3009 1.04219 10.4305 1.12183C10.56 1.20147 10.6647 1.31542 10.7328 1.4509L13.0714 6.13217L18.2996 6.88732C18.4504 6.90811 18.5923 6.97062 18.709 7.06771C18.8258 7.16481 18.9128 7.29258 18.96 7.43645C19.0072 7.58031 19.0128 7.73448 18.976 7.88134C18.9393 8.0282 18.8618 8.16184 18.7524 8.26701L14.9699 11.9086L15.8628 17.0533C15.9772 17.7137 15.275 18.2165 14.6746 17.9051L9.99919 15.475L5.32285 17.9051C4.72334 18.2174 4.02122 17.7137 4.13554 17.0524L5.0285 11.9077L1.24602 8.26612C1.13709 8.16087 1.06005 8.02736 1.02365 7.88076C0.987252 7.73417 0.992961 7.58036 1.04013 7.43682C1.08729 7.29329 1.17402 7.16579 1.29046 7.06881C1.4069 6.97183 1.54837 6.90926 1.6988 6.88822L6.92694 6.13217Z" fill="#52C4CE" stroke="#52C4CE" stroke-width="2" stroke-linecap="round" stroke-linejoin="round"/>
</svg>
