<svg width="180" height="180" viewBox="0 0 180 180" fill="none" xmlns="http://www.w3.org/2000/svg">
<g clip-path="url(#clip0_2_392)">
<path d="M17.8167 155.116C17.8167 156.052 17.6269 156.87 17.2533 157.576C16.8796 158.281 16.3636 158.874 15.7112 159.348C15.0588 159.822 14.2996 160.19 13.4397 160.439C12.5797 160.688 11.6604 160.812 10.6817 160.812H0V138.708H11.8324C12.5974 138.708 13.2973 138.874 13.9201 139.206C14.5428 139.538 15.0707 139.971 15.5096 140.498C15.9485 141.026 16.2806 141.63 16.5238 142.306C16.761 142.982 16.8796 143.658 16.8796 144.345C16.8796 145.424 16.6068 146.438 16.0671 147.38C15.5274 148.323 14.7385 149.028 13.7006 149.479C14.9699 149.852 15.9722 150.522 16.7076 151.488C17.4431 152.454 17.8108 153.664 17.8108 155.116H17.8167ZM4.29998 142.383V147.955H10.0293C10.7588 147.955 11.3757 147.706 11.8857 147.208C12.3958 146.71 12.6508 146.023 12.6508 145.151C12.6508 144.28 12.4195 143.628 11.951 143.13C11.4824 142.632 10.9071 142.383 10.225 142.383H4.29998ZM13.4871 154.304C13.4871 153.907 13.4219 153.533 13.2854 153.166C13.149 152.804 12.9711 152.484 12.7398 152.217C12.5085 151.95 12.2416 151.737 11.9272 151.577C11.6188 151.423 11.2748 151.346 10.9012 151.346H4.29998V157.167H10.6877C11.085 157.167 11.4528 157.096 11.7908 156.947C12.1348 156.805 12.4314 156.598 12.6805 156.343C12.9296 156.082 13.1253 155.78 13.2736 155.424C13.4159 155.074 13.493 154.701 13.493 154.304H13.4871Z" fill="url(#paint0_linear_2_392)"/>
<path d="M21.3991 160.812V138.708H31.1793C32.1994 138.708 33.1365 138.921 33.9965 139.348C34.8565 139.775 35.5979 140.332 36.2206 141.032C36.8434 141.725 37.3297 142.514 37.6856 143.397C38.0355 144.28 38.2135 145.169 38.2135 146.058C38.2135 147.493 37.8576 148.791 37.1399 149.965C36.4223 151.138 35.4555 151.98 34.2278 152.502L39.2751 160.812H34.4473L29.9338 153.403H25.699V160.812H21.3991ZM25.699 149.639H31.0903C31.4818 149.639 31.8554 149.544 32.1935 149.36C32.5375 149.17 32.834 148.921 33.0831 148.595C33.3322 148.275 33.528 147.896 33.6762 147.457C33.8186 147.019 33.8957 146.556 33.8957 146.058C33.8957 145.56 33.8126 145.062 33.6466 144.63C33.4805 144.191 33.2551 143.818 32.9764 143.492C32.6976 143.172 32.3714 142.923 32.0096 142.745C31.6478 142.567 31.2801 142.478 30.9065 142.478H25.705V149.639H25.699Z" fill="url(#paint1_linear_2_392)"/>
<path d="M49.0731 138.714H52.8749L61.2851 160.818H56.8605L54.8025 155.311H47.0803L45.0578 160.818H40.6333L49.0731 138.714ZM54.0255 152.288L50.971 143.604L47.792 152.288H54.0196H54.0255Z" fill="url(#paint2_linear_2_392)"/>
<path d="M63.5033 160.812V138.708H67.8032V160.812H63.5033Z" fill="url(#paint3_linear_2_392)"/>
<path d="M76.8184 146.651V160.812H72.5184V138.708H75.8516L87.3755 153.213V138.738H91.6755V160.806H88.1881L76.8184 146.645V146.651Z" fill="url(#paint4_linear_2_392)"/>
<path d="M104.427 138.838H107.072L110.002 146.526L112.962 138.838H115.607L111.776 148.459L115.577 157.582L123.051 138.72H126.105L116.853 160.824H114.421L110.032 150.397L105.607 160.824H103.176L93.959 138.72H96.9778L104.486 157.582L108.253 148.459L104.421 138.838H104.427Z" fill="url(#paint5_linear_2_392)"/>
<path d="M133.003 138.714H135.369L144.402 160.818H141.413L138.797 154.345H129.515L126.929 160.818H123.94L133.003 138.714ZM138.175 152.164L134.189 141.956L130.079 152.164H138.175Z" fill="url(#paint6_linear_2_392)"/>
<path d="M145.25 138.714L152.569 157.297L159.858 138.714H162.818L153.785 160.818H151.353L142.291 138.714H145.25Z" fill="url(#paint7_linear_2_392)"/>
<path d="M180 158.323V160.812H164.989V138.708H179.721V141.198H167.794V148.358H178.167V150.694H167.794V158.323H180.006H180Z" fill="url(#paint8_linear_2_392)"/>
<path d="M104.558 55.2935L102.108 102.614L103.306 55.2461L104.558 55.2935Z" fill="#878787"/>
<path d="M73.5682 102.644L71.949 57.042L74.8255 102.584L73.5682 102.644Z" fill="#878787"/>
<path d="M44.4766 177.694H40.5028L39.9809 179.923H39.4056L42.1398 168.708H42.9108L45.645 179.923H45.0222L44.4825 177.694H44.4766ZM44.3758 177.232L42.4778 169.336L40.6096 177.232H44.3758Z" fill="url(#paint9_linear_2_392)"/>
<path d="M55.1998 177.409V171.256C55.1998 169.123 56.1132 168.66 58.0645 168.66C60.0158 168.66 60.947 169.123 60.947 171.144V172.122H60.3242V171.144C60.3242 169.733 59.9328 169.123 58.0645 169.123C56.1963 169.123 55.8048 169.733 55.8048 171.256V177.409C55.8048 178.933 56.1963 179.537 58.0645 179.537C59.9328 179.537 60.3242 178.915 60.3242 177.486V176.491H60.947V177.486C60.947 179.508 60.0158 180 58.0645 180C56.1132 180 55.1998 179.537 55.1998 177.403V177.409Z" fill="url(#paint10_linear_2_392)"/>
<path d="M75.5017 177.694H71.5279L71.006 179.923H70.4307L73.1649 168.708H73.9359L76.6701 179.923H76.0473L75.5076 177.694H75.5017ZM75.4008 177.232L73.5029 169.336L71.6347 177.232H75.4008Z" fill="url(#paint11_linear_2_392)"/>
<path d="M92.2449 171.304V177.326C92.2449 179.443 91.3315 179.923 89.3802 179.923H86.4977V168.708H89.3802C91.3256 168.708 92.2449 169.17 92.2449 171.304ZM91.6221 171.304C91.6221 169.78 91.2425 169.176 89.3802 169.176H87.1086V179.443H89.3802C91.2485 179.443 91.6221 178.85 91.6221 177.326V171.304Z" fill="url(#paint12_linear_2_392)"/>
<path d="M103.016 169.188V173.894H106.782V174.374H103.016V179.437H106.782V179.917H102.411V168.702H106.782V169.182H103.016V169.188Z" fill="url(#paint13_linear_2_392)"/>
<path d="M124.604 168.708V179.923H124.065V169.668L120.987 179.923H120.417L117.339 169.715V179.923H116.829V168.708H117.6L120.726 179.093L123.833 168.708H124.604Z" fill="url(#paint14_linear_2_392)"/>
<path d="M140.6 168.708L137.801 175.886V179.923H137.196V175.933L134.397 168.708H135.037L137.576 175.181L140.049 168.708H140.606H140.6Z" fill="url(#paint15_linear_2_392)"/>
<path d="M87.1561 9.31827C87.0849 4.71839 83.5975 0.889104 79.1552 0.219276C74.4104 -0.497973 70.0392 2.11613 68.4912 6.59746C66.451 12.4955 70.3298 18.4469 76.8006 19.2708C78.2003 19.4487 79.6178 19.6147 79.4043 21.4641C79.1908 23.2957 77.708 23.189 76.3439 23.0764C69.5825 22.5311 64.3099 16.9828 64.1557 9.96439C64.1141 8.14459 63.3312 7.8897 61.9078 7.84228C57.2579 7.68816 53.1655 10.7883 52.1335 15.2993C51.0719 19.9347 53.4324 24.4161 58.0349 26.3841C59.3278 26.9353 60.4073 27.6111 59.7549 29.1701C59.1084 30.7113 57.8036 30.4682 56.5284 29.9525C53.2604 28.6366 50.8465 26.3959 49.3459 23.2187C48.9308 22.3414 48.5868 21.8909 47.4717 22.2169C42.3355 23.7225 39.3225 29.9347 41.3806 34.8429C41.7543 35.732 42.1754 35.9573 43.148 35.7379C49.2748 34.3568 54.2924 36.5678 58.2662 42.0035C58.6339 42.5074 59.2211 42.8037 59.8379 42.8452C65.7333 43.2365 69.2919 40.901 70.2053 36.3663C70.484 34.9792 71.0238 33.8589 72.6785 34.2145C74.268 34.5583 74.2028 35.8506 74.013 37.0954C73.3072 41.7427 69.2385 45.732 64.47 46.4256C60.3776 47.0243 56.8427 45.8743 54.0255 42.8275C51.4277 40.0177 48.3317 38.6247 44.5003 39.3775C39.5835 40.3438 36.3867 44.7836 36.8612 49.8458C37.3001 54.5524 41.3806 58.3343 46.25 58.358C56.5284 58.4113 66.8009 58.3995 77.0793 58.3817C83.3069 58.3698 87.1679 54.4872 87.1857 48.2335C87.2035 41.9857 87.1857 35.7379 87.1857 29.4961C87.1857 22.7682 87.2628 16.0403 87.162 9.31827H87.1561Z" fill="url(#paint16_linear_2_392)"/>
<path d="M73.0462 101.761L74.096 105.122L102.476 104.701L103.176 101.482L73.0462 101.761Z" fill="url(#paint17_linear_2_392)"/>
<path d="M99.8544 98.9626C99.3858 98.435 98.8164 97.9964 98.2648 97.5518C97.9979 97.3325 97.9564 97.1961 98.2411 96.9294C98.7275 96.473 99.0062 95.8387 99.0893 95.1748C99.1545 94.6472 99.2138 94.1197 99.2494 93.5921C99.3621 91.8197 99.2079 90.0296 99.4807 88.2631C99.5044 88.109 99.4629 87.8719 99.3977 87.7296C98.8935 86.6804 98.9291 85.5305 98.7631 84.4161C98.5733 83.1297 98.4902 81.7664 97.4997 80.8239C96.3373 79.7213 95.074 78.6958 93.5378 78.1446C93.0337 77.9667 92.6185 77.6644 92.1559 77.4273C91.9483 77.3206 91.723 77.2317 91.7585 76.9353C91.7941 76.6449 91.8475 76.39 92.1678 76.224C92.9981 75.8031 93.3718 74.2501 92.7787 73.515C92.494 73.1594 92.5118 72.863 92.5889 72.4836C92.7253 71.8079 92.9803 71.061 92.5652 70.4682C91.8772 69.4901 91.1832 68.4528 90.0385 67.9312C88.6922 67.3147 87.4526 67.374 86.4621 68.6662C85.5666 69.8399 85.3293 71.1795 85.4835 72.614C85.5132 72.9163 85.4835 73.1712 85.3412 73.4498C84.8193 74.505 85.0209 75.5601 85.8453 76.3011C86.2486 76.6626 86.1715 77.2732 85.6852 77.5281C84.3863 78.1979 83.0874 78.8677 81.7885 79.5316C80.3888 80.2489 79.4339 81.3337 79.1492 82.9045C78.8289 84.6532 78.479 86.3959 78.2596 88.1683C78.1232 89.2827 77.9037 90.3912 77.8503 91.5174C77.7673 93.2779 77.2632 95.1214 78.6866 96.6449C78.8645 96.8345 78.7815 96.9531 78.568 97.0657C77.6131 97.5755 76.8421 98.3165 76.1481 99.1167C75.3178 100.077 75.0924 101.369 75.1399 102.519C75.1814 103.474 75.3297 104.44 75.2881 105.412C75.2051 107.297 75.5491 109.152 75.7211 111.019C75.8634 112.596 76.3676 114.12 76.4803 115.702C76.4981 115.999 76.5336 116.271 76.415 116.556C76.1244 117.232 76.3379 117.996 76.9607 118.417C77.2869 118.637 77.3936 118.85 77.1505 119.182C76.8777 119.561 76.7887 120 76.7412 120.462C76.6701 121.085 76.4269 121.677 76.0354 122.164C75.211 123.201 75.2466 124.38 75.4305 125.59C75.4898 125.969 75.7033 126.248 76.1007 126.331C77.4114 126.603 78.6451 126.485 79.6593 125.501C80.1278 125.05 80.4659 124.529 80.2939 123.835C80.2168 123.521 80.3354 123.266 80.4659 122.999C81.1124 121.672 81.4089 120.32 80.7091 118.915C80.6438 118.785 80.6083 118.642 80.6616 118.494C80.9997 117.581 80.9345 116.615 80.7387 115.732C80.5074 114.695 80.4303 113.687 80.46 112.644C80.5193 110.812 80.5489 108.974 80.1812 107.161C80.1931 106.846 80.1931 106.532 80.2287 106.224C80.3532 104.95 81.2785 103.74 82.4884 103.509C82.951 103.42 83.4136 103.337 83.8822 103.266C83.9711 103.159 84.9675 103.076 85.1455 103.047C86.6638 102.786 87.3637 102.638 88.9057 102.715C89.2201 102.733 89.5522 102.756 89.8962 102.798C90.4359 102.863 90.9816 102.839 91.5213 102.792C91.5984 102.786 91.6755 102.78 91.7526 102.792C92.7075 102.857 93.6565 103.023 94.5936 103.219C95.3765 103.379 95.6967 103.782 95.6908 104.594C95.6908 106.005 95.6374 107.421 95.5129 108.832C95.3883 110.255 95.1096 111.689 95.3349 113.118C95.5188 114.274 95.3705 115.317 94.6529 116.254C94.4156 116.568 94.5165 116.882 94.6707 117.196C94.8189 117.493 94.9791 117.789 94.8071 118.145C94.4512 118.862 94.4809 119.626 94.4393 120.403C94.386 121.577 94.5105 122.762 94.2733 123.93C94.1428 124.564 94.4868 125.068 94.9909 125.424C96.5033 126.491 98.7037 125.785 99.2968 124.06C99.4688 123.568 99.4333 123.076 99.285 122.584C99.024 121.701 98.7097 120.842 98.3123 120.012C98.0869 119.544 98.0869 119.04 98.1344 118.536C98.1759 118.133 98.591 118.245 98.8046 118.079C98.8876 118.02 98.9766 117.937 99.0062 117.848C99.2138 117.22 99.5578 116.58 99.3265 115.91C98.9588 114.867 99.285 113.883 99.4926 112.899C100.062 110.124 100.797 107.38 100.768 104.517C100.768 104.007 100.851 103.497 100.969 102.999C101.349 101.434 100.874 100.113 99.8603 98.9626H99.8544ZM82.518 94.2501C82.518 94.2501 82.1622 93.8648 82.2215 92.5488C82.2808 91.2329 82.8146 86.5974 82.8146 86.5974C82.9273 86.9768 83.0518 93.3254 83.0518 93.3254L82.518 94.256V94.2501ZM95.3883 94.2501L94.8545 93.3194C94.8545 93.3194 94.9791 87.4095 95.0918 86.5915C95.0918 86.5915 95.6256 91.227 95.6849 92.5429C95.7442 93.8588 95.3883 94.2442 95.3883 94.2442V94.2501Z" fill="url(#paint18_linear_2_392)"/>
<path d="M133.786 40.0061C133.786 40.0061 139.266 34.9498 135.488 27.558C135.375 27.3624 135.257 27.1727 135.138 26.9949C134.076 27.4276 133.08 28.0915 132.036 28.5954C131.52 28.8443 131.17 29.3304 131.051 29.8876C130.607 31.9267 129.065 33.1122 127.309 32.9759C125.577 32.8396 124.403 31.654 124.1 29.7394C123.733 27.392 121.325 25.0447 118.976 24.7483C118.691 24.7127 118.407 24.7305 118.122 24.7009C116.669 24.5586 115.791 23.7524 115.69 22.3061C115.595 20.9427 116.325 20.0239 117.659 19.692C119.006 19.3541 120.251 20.0595 120.66 21.5533C121.01 22.8396 121.692 23.7524 122.695 24.5942C123.833 25.5485 124.966 26.2954 126.402 26.248C127.38 26.2124 128.365 26.2658 129.308 26.5325C130.903 26.9771 132.362 26.4317 133.869 25.673C133.91 25.6552 133.946 25.6315 133.981 25.6137C130.043 21.8378 123.899 23.7347 123.899 23.7347C123.899 23.7347 127.451 18.5598 124.557 12.7684C124.361 12.4246 124.16 12.0986 123.952 11.7904C123.199 12.1638 122.38 12.2942 121.514 12.2942C118.857 12.2942 117.891 13.1419 117.422 15.8212C117.143 17.4098 116.111 18.2871 114.765 18.0678C113.543 17.8662 112.701 16.6274 112.962 15.4003C113.193 14.3037 114.018 13.8414 114.937 13.5568C117.363 12.5491 117.772 11.6659 117.345 8.48865C117.28 8.00851 117.297 7.54615 117.351 7.09565C115.779 6.74592 114.148 6.70442 112.523 6.7637C112.446 8.10336 111.651 9.40152 110.263 10.2314C107.44 11.9089 106.651 14.197 107.849 17.2676C108.62 19.2474 107.98 21.0791 106.284 21.7133C104.564 22.3594 102.867 21.4347 102.15 19.4726C101.343 17.2557 100.459 16.8526 97.7251 17.4572C95.7205 17.9018 93.9115 16.8941 93.4133 15.0565C92.927 13.2545 93.9827 11.3873 95.762 10.8894C97.6184 10.3677 99.374 11.3636 100.026 13.3256C100.098 13.539 100.151 13.7643 100.204 13.9836C100.525 15.3233 101.438 16.0642 102.749 16.1235C104.148 16.1887 105.174 15.4359 105.554 14.0725C106.017 12.4069 106.877 10.6819 105.43 9.09921C104.048 6.91189 104.516 4.42819 106.503 3.20709C106.592 3.15374 106.687 3.10039 106.782 3.0589C102.458 -0.52735 98.2411 0.0298523 98.2411 0.0298523C88.3245 0.800451 89.0184 9.72161 89.0184 9.72161V48.2219C89.0184 59.6742 99.2731 58.3642 99.2731 58.3642H130.162C136.888 58.3642 140.357 53.1597 139.408 47.3683C138.459 41.577 133.786 40.0061 133.786 40.0061ZM98.2827 5.00318C98.68 4.20294 99.3502 3.92434 100.198 4.22072C100.987 4.4934 101.379 5.44183 101.07 6.2065C100.762 6.95339 99.7891 7.35054 99.0478 7.03044C98.2886 6.70442 97.909 5.75599 98.2827 5.00318ZM123.691 37.1312C124.278 35.9516 125.269 35.5426 126.52 35.9753C127.689 36.3843 128.27 37.7833 127.807 38.9095C127.356 40.018 125.915 40.5989 124.818 40.1306C123.697 39.6445 123.134 38.2456 123.691 37.1371V37.1312ZM97.6243 24.3867C98.2115 23.2071 99.202 22.7981 100.453 23.2308C101.622 23.6398 102.203 25.0387 101.74 26.165C101.29 27.2735 99.8484 27.8544 98.7512 27.3861C97.6302 26.9 97.0668 25.5011 97.6243 24.3926V24.3867ZM113.502 52.6321C112.221 53.5094 110.234 53.3197 109.48 51.9267C108.098 49.3719 105.578 49.4786 103.324 48.9392C102.796 48.8147 102.25 48.9569 101.823 49.2948C100.27 50.5278 98.425 50.4685 97.2269 49.3126C96.0407 48.1745 95.8925 46.5977 96.8177 45.015C97.9565 43.0708 97.6006 39.9113 96.0585 38.2812C95.8747 38.0856 95.6493 37.9255 95.4595 37.7358C94.4749 36.7578 94.3207 35.6374 95.1155 34.523C95.8687 33.462 96.9482 33.2308 98.1344 33.7821C99.3206 34.3393 99.8188 35.6078 99.2197 36.9475C98.7038 38.0974 98.6563 39.1822 98.8817 40.4033C99.1426 41.7844 99.5282 43.0174 100.608 43.8354C101.349 44.3985 102.037 45.0269 102.571 45.7856C103.472 47.0719 104.872 47.5402 106.432 47.8959C107.867 48.216 109.125 48.2634 110.477 47.5165C112.025 46.6629 113.733 47.2853 114.498 48.7435C115.186 50.0476 114.741 51.7904 113.508 52.6321H113.502ZM113.941 36.4436C113.786 36.4555 113.377 36.5147 112.962 36.5207C110.157 36.5266 108.798 37.7477 108.502 40.5515C108.324 42.2764 107.173 43.2723 105.726 42.9641C104.409 42.6855 103.615 41.3991 103.982 40.1188C104.237 39.2415 104.854 38.7435 105.708 38.4649C108.603 37.5106 109.463 36.0227 108.858 33.047C108.348 30.5278 109.783 28.216 112.197 27.6647C114.563 27.1253 117.06 28.6843 117.588 31.0494C118.14 33.4916 116.663 35.8153 113.935 36.4495L113.941 36.4436ZM131.716 47.641C129.569 47.801 127.932 49.4074 127.742 51.5473C127.594 53.2189 126.574 54.2504 125.097 54.2207C123.62 54.1911 122.641 53.1122 122.57 51.4288C122.475 49.2652 121.586 48.2753 119.391 47.9018C117.861 47.641 116.924 46.5977 117.031 45.2699C117.137 43.9718 118.175 43.0115 119.456 43.0293C120.868 43.047 121.864 43.9895 121.87 45.5722C121.876 47.2735 122.766 48.3108 124.171 48.9154C125.542 49.5023 126.799 49.034 128.151 47.6351C128.851 47.066 129.189 46.2243 129.231 45.1632C129.302 43.4679 130.494 42.3594 131.983 42.4483C133.359 42.5313 134.408 43.6457 134.42 45.0387C134.432 46.5444 133.418 47.5165 131.716 47.6469V47.641Z" fill="url(#paint19_linear_2_392)"/>
</g>
<defs>
<linearGradient id="paint0_linear_2_392" x1="-3.26205" y1="149.028" x2="172.834" y2="163.057" gradientUnits="userSpaceOnUse">
<stop stop-color="#132F30"/>
<stop offset="1" stop-color="#203E7E"/>
</linearGradient>
<linearGradient id="paint1_linear_2_392" x1="-3.1375" y1="147.41" x2="172.959" y2="161.444" gradientUnits="userSpaceOnUse">
<stop stop-color="#132F30"/>
<stop offset="1" stop-color="#203E7E"/>
</linearGradient>
<linearGradient id="paint2_linear_2_392" x1="-3.00702" y1="145.803" x2="173.089" y2="159.838" gradientUnits="userSpaceOnUse">
<stop stop-color="#132F30"/>
<stop offset="1" stop-color="#203E7E"/>
</linearGradient>
<linearGradient id="paint3_linear_2_392" x1="-2.8884" y1="144.31" x2="173.208" y2="158.344" gradientUnits="userSpaceOnUse">
<stop stop-color="#132F30"/>
<stop offset="1" stop-color="#203E7E"/>
</linearGradient>
<linearGradient id="paint4_linear_2_392" x1="-2.7876" y1="143.023" x2="173.309" y2="157.058" gradientUnits="userSpaceOnUse">
<stop stop-color="#132F30"/>
<stop offset="1" stop-color="#203E7E"/>
</linearGradient>
<linearGradient id="paint5_linear_2_392" x1="-2.60963" y1="140.433" x2="173.487" y2="154.461" gradientUnits="userSpaceOnUse">
<stop stop-color="#132F30"/>
<stop offset="1" stop-color="#203E7E"/>
</linearGradient>
<linearGradient id="paint6_linear_2_392" x1="-2.48509" y1="139.247" x2="173.611" y2="153.276" gradientUnits="userSpaceOnUse">
<stop stop-color="#132F30"/>
<stop offset="1" stop-color="#203E7E"/>
</linearGradient>
<linearGradient id="paint7_linear_2_392" x1="-2.31303" y1="137.078" x2="173.783" y2="151.106" gradientUnits="userSpaceOnUse">
<stop stop-color="#132F30"/>
<stop offset="1" stop-color="#203E7E"/>
</linearGradient>
<linearGradient id="paint8_linear_2_392" x1="-2.21824" y1="135.869" x2="173.878" y2="149.903" gradientUnits="userSpaceOnUse">
<stop stop-color="#132F30"/>
<stop offset="1" stop-color="#203E7E"/>
</linearGradient>
<linearGradient id="paint9_linear_2_392" x1="158.85" y1="188.619" x2="14.2605" y2="171.03" gradientUnits="userSpaceOnUse">
<stop stop-color="#52C4CE"/>
<stop offset="0.32" stop-color="#42AFC2"/>
<stop offset="0.98" stop-color="#1A79A6"/>
<stop offset="1" stop-color="#1977A5"/>
</linearGradient>
<linearGradient id="paint10_linear_2_392" x1="159.093" y1="186.609" x2="14.5036" y2="169.02" gradientUnits="userSpaceOnUse">
<stop stop-color="#52C4CE"/>
<stop offset="0.32" stop-color="#42AFC2"/>
<stop offset="0.98" stop-color="#1A79A6"/>
<stop offset="1" stop-color="#1977A5"/>
</linearGradient>
<linearGradient id="paint11_linear_2_392" x1="159.301" y1="184.902" x2="14.7112" y2="167.313" gradientUnits="userSpaceOnUse">
<stop stop-color="#52C4CE"/>
<stop offset="0.32" stop-color="#42AFC2"/>
<stop offset="0.98" stop-color="#1A79A6"/>
<stop offset="1" stop-color="#1977A5"/>
</linearGradient>
<linearGradient id="paint12_linear_2_392" x1="159.532" y1="182.981" x2="14.9425" y2="165.392" gradientUnits="userSpaceOnUse">
<stop stop-color="#52C4CE"/>
<stop offset="0.32" stop-color="#42AFC2"/>
<stop offset="0.98" stop-color="#1A79A6"/>
<stop offset="1" stop-color="#1977A5"/>
</linearGradient>
<linearGradient id="paint13_linear_2_392" x1="159.769" y1="181.019" x2="15.1858" y2="163.43" gradientUnits="userSpaceOnUse">
<stop stop-color="#52C4CE"/>
<stop offset="0.32" stop-color="#42AFC2"/>
<stop offset="0.98" stop-color="#1A79A6"/>
<stop offset="1" stop-color="#1977A5"/>
</linearGradient>
<linearGradient id="paint14_linear_2_392" x1="160.007" y1="179.087" x2="15.417" y2="161.498" gradientUnits="userSpaceOnUse">
<stop stop-color="#52C4CE"/>
<stop offset="0.32" stop-color="#42AFC2"/>
<stop offset="0.98" stop-color="#1A79A6"/>
<stop offset="1" stop-color="#1977A5"/>
</linearGradient>
<linearGradient id="paint15_linear_2_392" x1="160.273" y1="176.911" x2="15.6839" y2="159.322" gradientUnits="userSpaceOnUse">
<stop stop-color="#52C4CE"/>
<stop offset="0.32" stop-color="#42AFC2"/>
<stop offset="0.98" stop-color="#1A79A6"/>
<stop offset="1" stop-color="#1977A5"/>
</linearGradient>
<linearGradient id="paint16_linear_2_392" x1="39.8385" y1="10.2786" x2="135.472" y2="92.1335" gradientUnits="userSpaceOnUse">
<stop stop-color="#52C4CE"/>
<stop offset="0.17" stop-color="#42AFC2"/>
<stop offset="0.52" stop-color="#1A79A6"/>
<stop offset="0.53" stop-color="#1977A5"/>
<stop offset="1" stop-color="#1C4281"/>
</linearGradient>
<linearGradient id="paint17_linear_2_392" x1="88.277" y1="115.222" x2="86.9618" y2="7.30291" gradientUnits="userSpaceOnUse">
<stop stop-color="#52C4CE"/>
<stop offset="0.17" stop-color="#42AFC2"/>
<stop offset="0.52" stop-color="#1A79A6"/>
<stop offset="0.53" stop-color="#1977A5"/>
<stop offset="1" stop-color="#1C4281"/>
</linearGradient>
<linearGradient id="paint18_linear_2_392" x1="88.111" y1="128.168" x2="88.111" y2="77.4984" gradientUnits="userSpaceOnUse">
<stop stop-color="#132F30"/>
<stop offset="1" stop-color="#203E7E"/>
</linearGradient>
<linearGradient id="paint19_linear_2_392" x1="56.8961" y1="-9.65005" x2="152.536" y2="72.2049" gradientUnits="userSpaceOnUse">
<stop stop-color="#52C4CE"/>
<stop offset="0.17" stop-color="#42AFC2"/>
<stop offset="0.52" stop-color="#1A79A6"/>
<stop offset="0.53" stop-color="#1977A5"/>
<stop offset="1" stop-color="#1C4281"/>
</linearGradient>
<clipPath id="clip0_2_392">
<rect width="180" height="180" fill="white"/>
</clipPath>
</defs>
</svg>
