<svg width="294" height="99" viewBox="0 0 294 99" fill="none" xmlns="http://www.w3.org/2000/svg">
<path d="M57.7761 40.5032L56.3134 75.1533L57.0271 40.4672L57.7761 40.5032Z" fill="white"/>
<path d="M34.874 75.1532L33.6418 41.9124L35.8358 75.103L34.874 75.1532Z" fill="white"/>
<path d="M45.315 6.74122C45.263 3.37415 42.6248 0.575453 39.2733 0.0862206C35.6914 -0.438985 32.3993 1.47478 31.2252 4.74832C29.6869 9.06507 32.6148 13.4106 37.4972 14.015C38.5525 14.1445 39.6226 14.2668 39.4591 15.6193C39.2956 16.9575 38.1809 16.8784 37.148 16.7993C32.0501 16.4036 28.0669 12.3458 27.948 7.20887C27.9183 5.87787 27.3237 5.69081 26.2536 5.65483C22.7461 5.53972 19.6546 7.80602 18.8743 11.1083C18.0718 14.497 19.8553 17.7777 23.3257 19.2166C24.2992 19.6195 25.1166 20.116 24.6262 21.2527C24.1357 22.3823 23.1548 22.2024 22.1961 21.8283C19.7289 20.8642 17.9083 19.2238 16.7787 16.9C16.4666 16.2597 16.2065 15.9287 15.3667 16.1661C11.4876 17.2669 9.22105 21.8067 10.7668 25.3968C11.0492 26.0443 11.3613 26.2098 12.097 26.0515C16.7193 25.0443 20.5092 26.6558 23.504 30.6345C23.779 31.0014 24.2249 31.2172 24.6931 31.2532C29.1444 31.5338 31.8271 29.8287 32.5182 26.5191C32.7263 25.5047 33.135 24.6845 34.3835 24.9507C35.5874 25.2025 35.5354 26.145 35.3867 27.0587C34.8517 30.4546 31.7825 33.3684 28.1858 33.8792C25.0943 34.3181 22.4339 33.4763 20.3011 31.246C18.3393 29.1955 16.0058 28.1739 13.1151 28.7279C9.3994 29.433 6.99165 32.6777 7.34835 36.3829C7.68276 39.8219 10.7593 42.5847 14.4304 42.6063C22.1887 42.6494 29.9396 42.635 37.6979 42.6206C42.4019 42.6206 45.3075 39.7788 45.3224 35.203C45.3373 30.6345 45.3224 26.0731 45.3224 21.5045C45.3224 16.5834 45.3819 11.6695 45.3001 6.74841L45.315 6.74122Z" fill="white"/>
<path d="M34.3731 74.6494L35.1659 77.3212L56.5187 76.9853L57.0448 74.4307L34.3731 74.6494Z" fill="white"/>
<path d="M54.6356 72.9758C54.284 72.592 53.8425 72.2661 53.4235 71.9402C53.2214 71.7808 53.1915 71.6794 53.4085 71.4839C53.7751 71.1507 53.9921 70.68 54.052 70.1947C54.1044 69.8109 54.1493 69.4198 54.1717 69.0287C54.254 67.7251 54.1418 66.407 54.3513 65.1106C54.3663 64.9947 54.3363 64.8209 54.284 64.7195C53.9023 63.9446 53.9248 63.0972 53.8051 62.2788C53.6629 61.3301 53.5956 60.3306 52.8473 59.6354C51.9643 58.8242 51.0065 58.071 49.8318 57.6582C49.4502 57.5279 49.1359 57.3033 48.7842 57.1295C48.6271 57.0499 48.455 56.9847 48.4849 56.7674C48.5148 56.5501 48.5522 56.3618 48.7917 56.246C49.4202 55.9345 49.7046 54.7902 49.2556 54.2543C49.0386 53.9936 49.0536 53.7763 49.1059 53.4939C49.2107 53.0014 49.4053 52.4437 49.0835 52.0092C48.5597 51.2922 48.0284 50.5245 47.1679 50.1406C46.1503 49.6844 45.2 49.7351 44.4517 50.6838C43.7708 51.5457 43.5912 52.5379 43.7035 53.588C43.7259 53.8125 43.7035 53.9936 43.5987 54.2036C43.2021 54.9785 43.3518 55.7535 43.9803 56.3039C44.2871 56.5719 44.2272 57.0209 43.8606 57.2019C42.8729 57.6944 41.8852 58.1869 40.8974 58.6794C39.8349 59.2081 39.1091 60.0047 38.8921 61.1563C38.6452 62.4454 38.3833 63.7273 38.2186 65.0309C38.1139 65.8493 37.9493 66.6677 37.9044 67.4933C37.8445 68.7897 37.4554 70.144 38.5404 71.2666C38.6751 71.4115 38.6152 71.4911 38.4506 71.578C37.7248 71.9546 37.1411 72.4978 36.6099 73.0917C35.9738 73.8014 35.8092 74.7502 35.8392 75.5976C35.8691 76.3001 35.9888 77.0098 35.9514 77.7268C35.8915 79.1173 36.1534 80.4789 36.2806 81.855C36.3929 83.0137 36.7745 84.1363 36.8568 85.3023C36.8718 85.5196 36.9017 85.7224 36.8044 85.9324C36.5874 86.4321 36.7446 86.9898 37.216 87.3012C37.4629 87.4605 37.5452 87.6199 37.3581 87.8661C37.1486 88.1486 37.0888 88.4672 37.0439 88.8076C36.9915 89.2639 36.8044 89.6984 36.5126 90.0606C35.884 90.8283 35.914 91.6901 36.0562 92.5809C36.101 92.8561 36.2657 93.0661 36.565 93.1241C37.5602 93.3269 38.4955 93.24 39.2662 92.5157C39.6179 92.1826 39.8798 91.7987 39.7451 91.2845C39.6853 91.0528 39.775 90.8645 39.8723 90.6689C40.3662 89.6912 40.5907 88.699 40.0594 87.6633C40.007 87.5619 39.9771 87.4678 40.022 87.3519C40.2764 86.6784 40.2315 85.9686 40.0818 85.3168C39.9022 84.5564 39.8424 83.8104 39.8723 83.0427C39.9172 81.6956 39.9397 80.3413 39.6628 79.0087C39.6703 78.777 39.6703 78.5452 39.7002 78.3207C39.7975 77.3864 40.5009 76.4956 41.4138 76.3218C41.7654 76.2566 42.1171 76.1987 42.4763 76.1407C42.5436 76.0611 43.2994 76.0031 43.4341 75.9814C44.5864 75.7859 45.1177 75.6845 46.2925 75.7352C46.5319 75.7496 46.7863 75.7641 47.0407 75.7931C47.4523 75.8438 47.8638 75.8221 48.2754 75.7931C48.3352 75.7931 48.3951 75.7931 48.455 75.7931C49.1808 75.8365 49.8991 75.9597 50.6174 76.1045C51.2086 76.2276 51.4555 76.5173 51.4555 77.1185C51.4555 78.1614 51.4106 79.197 51.3208 80.2399C51.231 81.2901 51.014 82.3402 51.1861 83.3976C51.3283 84.2449 51.2161 85.0126 50.6698 85.7079C50.4902 85.9397 50.5651 86.1714 50.6848 86.4032C50.797 86.6204 50.9168 86.8377 50.7895 87.0984C50.5202 87.6271 50.5426 88.192 50.5127 88.7642C50.4678 89.626 50.5651 90.4951 50.3855 91.3642C50.2882 91.8277 50.5501 92.2043 50.9317 92.465C52.084 93.2472 53.7527 92.733 54.2017 91.4656C54.3289 91.1035 54.3064 90.7413 54.2017 90.3792C54.0071 89.7274 53.7677 89.0973 53.4609 88.489C53.2888 88.1413 53.2888 87.772 53.3262 87.4026C53.3561 87.1057 53.6704 87.1853 53.835 87.0622C53.8949 87.0188 53.9622 86.9608 53.9847 86.8884C54.1418 86.4249 54.4037 85.9541 54.2241 85.4617C53.9472 84.694 54.1942 83.9697 54.3513 83.2455C54.7853 81.2031 55.339 79.1825 55.3241 77.075C55.3241 76.6984 55.3839 76.3218 55.4812 75.9597C55.773 74.8081 55.4138 73.8304 54.6356 72.9903V72.9758ZM41.4661 69.5067C41.4661 69.5067 41.1968 69.2243 41.2416 68.2538C41.2865 67.2833 41.6906 63.8722 41.6906 63.8722C41.7729 64.1546 41.8702 68.8259 41.8702 68.8259L41.4661 69.5067ZM51.246 69.5067L50.8419 68.8259C50.8419 68.8259 50.9392 64.4733 51.0215 63.8722C51.0215 63.8722 51.4256 67.2833 51.4705 68.2538C51.5154 69.2243 51.246 69.5067 51.246 69.5067Z" fill="white"/>
<path d="M79.7574 29.1994C79.7574 29.1994 83.8761 25.5075 81.0389 20.1132C80.9575 19.9695 80.8686 19.833 80.7723 19.7037C79.9722 20.0198 79.2241 20.501 78.4389 20.8745C78.0463 21.0541 77.787 21.4061 77.6981 21.8227C77.3648 23.3095 76.2018 24.1786 74.8832 24.0781C73.5795 23.9775 72.698 23.1084 72.4683 21.7149C72.1942 20.0054 70.3794 18.2887 68.6164 18.0732C68.4015 18.0445 68.1867 18.0589 67.9719 18.0373C66.8756 17.9368 66.2163 17.3406 66.1422 16.2919C66.0681 15.2935 66.6163 14.6255 67.6237 14.3813C68.6312 14.1371 69.5719 14.647 69.8831 15.7388C70.1497 16.6726 70.6609 17.3478 71.4164 17.9583C72.2683 18.6551 73.1276 19.2009 74.2017 19.165C74.9425 19.1363 75.6758 19.1794 76.3869 19.3733C77.587 19.6966 78.6833 19.3015 79.8167 18.7484C79.8463 18.7341 79.8759 18.7197 79.8982 18.7053C76.9351 15.9471 72.3128 17.3334 72.3128 17.3334C72.3128 17.3334 74.9869 13.5552 72.8091 9.33175C72.6609 9.08035 72.5128 8.84332 72.3572 8.62065C71.7942 8.89359 71.1794 8.98697 70.5201 8.98697C68.5201 8.98697 67.7941 9.60469 67.4385 11.5656C67.2311 12.7292 66.4533 13.3685 65.4385 13.2105C64.5199 13.0668 63.8829 12.1546 64.0829 11.2639C64.2607 10.4666 64.8755 10.129 65.5644 9.92074C67.3867 9.18809 67.6978 8.54164 67.3719 6.22158C67.32 5.86963 67.3348 5.53203 67.3719 5.20162C66.1941 4.94304 64.9644 4.91431 63.7421 4.95741C63.6829 5.93427 63.0903 6.8824 62.0384 7.48576C59.9124 8.70684 59.3198 10.3804 60.2235 12.6215C60.8087 14.0652 60.3198 15.4012 59.0457 15.8681C57.7494 16.335 56.4753 15.667 55.9345 14.2304C55.3271 12.6143 54.6604 12.3198 52.6085 12.758C51.0973 13.0812 49.7343 12.3485 49.3639 11.0053C49.001 9.69089 49.7936 8.32615 51.1269 7.96701C52.527 7.58632 53.8455 8.31179 54.3344 9.74835C54.3863 9.90637 54.4307 10.0716 54.4678 10.2296C54.7122 11.2065 55.3937 11.7524 56.3864 11.7955C57.4382 11.8386 58.2086 11.2927 58.4975 10.3014C58.8457 9.08753 59.4976 7.83054 58.4086 6.6741C57.3716 5.07952 57.7271 3.26226 59.2161 2.37159C59.2827 2.32849 59.3568 2.29258 59.4235 2.26385C56.1938 -0.386613 53.0233 0.0228079 53.0233 0.0228079C45.5638 0.583068 46.0824 7.09789 46.0824 7.09789V35.1971C46.0824 43.5507 53.7937 42.6026 53.7937 42.6026H77.0314C82.0908 42.6026 84.7057 38.8029 83.9872 34.5722C83.2686 30.3487 79.7574 29.1994 79.7574 29.1994ZM53.0529 3.65013C53.3566 3.06833 53.8604 2.86721 54.4974 3.08269C55.09 3.28381 55.3863 3.97336 55.1493 4.53362C54.9197 5.07952 54.1863 5.36683 53.6307 5.13698C53.0603 4.89994 52.7714 4.20321 53.0529 3.65732V3.65013ZM72.1646 27.0949C72.6091 26.2329 73.3498 25.9313 74.2906 26.2545C75.1721 26.549 75.6017 27.5689 75.2536 28.395C74.9128 29.1994 73.8313 29.6304 73.0091 29.2856C72.1646 28.9337 71.7424 27.9065 72.1572 27.1021L72.1646 27.0949ZM52.5566 17.7931C53.0011 16.9312 53.7418 16.6295 54.6826 16.9527C55.5641 17.2472 55.9938 18.2672 55.6456 19.0932C55.3048 19.8977 54.2233 20.3286 53.4011 19.9839C52.5566 19.6319 52.1344 18.6048 52.5492 17.8003L52.5566 17.7931ZM64.4977 38.4078C63.5347 39.0471 62.0384 38.9106 61.4754 37.8907C60.4383 36.0231 58.542 36.1021 56.8456 35.7071C56.4456 35.6137 56.0382 35.7214 55.7197 35.9657C54.5493 36.8635 53.164 36.8204 52.2603 35.98C51.364 35.1468 51.2529 33.9976 51.9566 32.8411C52.8159 31.4261 52.5492 29.1132 51.3862 27.9281C51.2455 27.7844 51.0825 27.6695 50.9343 27.5258C50.1936 26.8147 50.0751 25.9959 50.6751 25.1771C51.2381 24.4013 52.0529 24.2361 52.9418 24.6383C53.8381 25.0478 54.2085 25.9672 53.7567 26.944C53.3715 27.7844 53.327 28.5745 53.5048 29.4652C53.7048 30.4708 53.9937 31.3686 54.8011 31.972C55.3567 32.3814 55.8752 32.8411 56.2752 33.3942C56.9568 34.3352 58.0086 34.6727 59.179 34.9313C60.2531 35.1684 61.2087 35.1971 62.2236 34.6512C63.3866 34.0335 64.6755 34.486 65.2533 35.5491C65.7718 36.5044 65.4385 37.7757 64.5051 38.3863L64.4977 38.4078ZM64.8311 26.5921C64.7199 26.5993 64.4014 26.6495 64.0903 26.6495C61.9791 26.6495 60.9569 27.5474 60.7346 29.5873C60.6013 30.8443 59.7346 31.5698 58.6457 31.3471C57.6531 31.146 57.053 30.205 57.3345 29.2713C57.5271 28.632 57.9864 28.2729 58.6309 28.0646C60.8087 27.3678 61.4532 26.2832 61.0013 24.1068C60.6161 22.268 61.6976 20.58 63.5125 20.1778C65.2903 19.7828 67.1719 20.9248 67.5719 22.6487C67.9867 24.43 66.8756 26.1252 64.8236 26.5921H64.8311ZM78.2018 34.7661C76.587 34.8811 75.3573 36.059 75.2091 37.6177C75.098 38.8388 74.3276 39.593 73.2165 39.5714C72.1053 39.5499 71.372 38.767 71.3127 37.5387C71.2461 35.9585 70.572 35.233 68.9201 34.9672C67.7719 34.7805 67.0608 34.0119 67.1422 33.0422C67.2237 32.0941 68.0089 31.3974 68.9719 31.4046C70.0312 31.4189 70.7868 32.1085 70.7868 33.2577C70.7868 34.5004 71.4609 35.2546 72.5202 35.6999C73.5498 36.1237 74.498 35.7861 75.5129 34.7661C76.0388 34.3495 76.2906 33.7318 76.3277 32.9632C76.3795 31.7278 77.2759 30.9161 78.3944 30.9808C79.4315 31.0382 80.2167 31.8571 80.2241 32.8699C80.2315 33.9688 79.4685 34.6799 78.187 34.7733L78.2018 34.7661Z" fill="white"/>
<path d="M124.642 44.9187C124.642 45.8313 124.454 46.6286 124.079 47.3203C123.704 48.0119 123.19 48.5883 122.528 49.0494C121.867 49.5105 121.116 49.8659 120.247 50.1157C119.378 50.3559 118.459 50.4808 117.482 50.4808H106.776V28.9052H118.647C119.417 28.9052 120.119 29.0685 120.741 29.3951C121.363 29.7217 121.896 30.1348 122.331 30.6535C122.765 31.1722 123.111 31.7582 123.348 32.4114C123.585 33.0743 123.704 33.7371 123.704 34.3999C123.704 35.4566 123.437 36.4364 122.894 37.3586C122.351 38.2808 121.56 38.9629 120.524 39.4144C121.798 39.7794 122.795 40.4326 123.536 41.374C124.276 42.3154 124.642 43.497 124.642 44.9091V44.9187ZM111.082 32.4883V37.9254H116.83C117.561 37.9254 118.183 37.6853 118.687 37.1953C119.2 36.7054 119.447 36.0426 119.447 35.1876C119.447 34.3327 119.21 33.6987 118.746 33.2087C118.282 32.7188 117.699 32.4787 117.008 32.4787H111.072L111.082 32.4883ZM120.296 44.1214C120.296 43.7372 120.227 43.3625 120.089 43.0167C119.951 42.6613 119.773 42.3539 119.546 42.0945C119.319 41.8351 119.042 41.6238 118.736 41.4701C118.42 41.3164 118.084 41.2395 117.709 41.2395H111.082V46.9168H117.482C117.877 46.9168 118.242 46.8496 118.588 46.7055C118.933 46.5614 119.23 46.3693 119.477 46.1099C119.724 45.8602 119.921 45.5624 120.069 45.2165C120.217 44.8707 120.286 44.5057 120.286 44.1214H120.296Z" fill="white"/>
<path d="M128.612 50.4808V28.9052H138.386C139.4 28.9052 140.345 29.1165 141.202 29.5296C142.058 29.9426 142.806 30.4902 143.426 31.1722C144.046 31.8543 144.538 32.6228 144.893 33.4777C145.247 34.3423 145.424 35.2068 145.424 36.0714C145.424 37.4739 145.07 38.7419 144.351 39.8851C143.633 41.0282 142.668 41.8544 141.438 42.3635L146.478 50.4808H141.654L137.136 43.2473H132.904V50.4808H128.612ZM132.904 39.5681H138.288C138.682 39.5681 139.046 39.4816 139.39 39.2991C139.735 39.1166 140.03 38.8668 140.276 38.5594C140.522 38.2424 140.719 37.8774 140.867 37.4547C141.015 37.032 141.083 36.5709 141.083 36.0906C141.083 35.6103 141.005 35.1204 140.837 34.6977C140.67 34.275 140.444 33.9004 140.168 33.593C139.892 33.276 139.568 33.0358 139.203 32.8629C138.839 32.69 138.475 32.6036 138.101 32.6036H132.904V39.5873V39.5681Z" fill="white"/>
<path d="M155.988 28.9052H159.825L168.313 50.4808H163.851L161.773 45.1013H153.981L151.933 50.4808H147.47L155.988 28.9052ZM160.988 42.1522L157.907 33.6794L154.696 42.1522H160.988Z" fill="white"/>
<path d="M171.291 50.4808V28.9052H175.261V50.4808H171.291Z" fill="white"/>
<path d="M184.451 36.6574V50.4808H180.224V28.9052H183.501L194.845 43.0647V28.934H199.082V50.4808H195.65L184.451 36.6574Z" fill="white"/>
<path d="M211.724 29.03H214.424L217.404 36.5325L220.424 29.03H223.124L219.22 38.4153L223.094 47.3203L230.71 28.9052H233.821L224.398 50.4808H221.92L217.444 40.2981L212.938 50.4808H210.46L201.067 28.9052H204.148L211.794 47.3203L215.638 38.4153L211.734 29.03H211.724Z" fill="white"/>
<path d="M241.079 28.9052H243.486L252.679 50.4808H249.631L246.965 44.1599H237.51L234.884 50.4808H231.836L241.059 28.9052H241.079ZM246.343 42.0273L242.283 32.0656L238.092 42.0273H246.333H246.343Z" fill="white"/>
<path d="M253.552 28.9052L260.629 47.0417L267.678 28.9052H270.545L261.81 50.4808H259.457L250.694 28.9052H253.552Z" fill="white"/>
<path d="M288.41 48.0504V50.4808H273.522V28.9052H288.127V31.3355H276.305V38.3193H286.585V40.5959H276.305V48.0408H288.41V48.0504Z" fill="white"/>
<path d="M151.315 67.9563H147.52L147.022 70.0949H146.478L149.089 59.3071H149.822L152.433 70.0949H151.841L151.324 67.9563H151.315ZM151.221 67.5115L149.408 59.9128L147.633 67.5115H151.221Z" fill="white"/>
<path d="M162.358 67.4003V61.021C162.358 58.8061 163.308 58.3264 165.331 58.3264C167.353 58.3264 168.313 58.8061 168.313 60.8985V61.909H167.67V60.8985C167.67 59.439 167.261 58.8061 165.331 58.8061C163.4 58.8061 162.992 59.439 162.992 61.021V67.4003C162.992 68.9824 163.4 69.605 165.331 69.605C167.261 69.605 167.67 68.9518 167.67 67.482V66.4511H168.313V67.482C168.313 69.5744 167.343 70.0949 165.331 70.0949C163.318 70.0949 162.358 69.6152 162.358 67.4003Z" fill="white"/>
<path d="M183.076 67.9563H179.281L178.784 70.0949H178.239L180.85 59.3071H181.583L184.194 70.0949H183.602L183.086 67.9563H183.076ZM182.982 67.5115L181.169 59.9128L179.394 67.5115H182.982Z" fill="white"/>
<path d="M200.075 61.8054V67.5967C200.075 69.6312 199.125 70.0949 197.102 70.0949H194.119V59.3071H197.102C199.125 59.3071 200.075 59.7519 200.075 61.8054ZM199.431 61.8054C199.431 60.3386 199.043 59.7613 197.102 59.7613H194.743V69.6407H197.102C199.033 69.6407 199.431 69.0729 199.431 67.6062V61.8148V61.8054Z" fill="white"/>
<path d="M210.554 59.7708V64.3036H213.97V64.7673H210.554V69.6312H213.97V70.0949H210V59.3071H213.97V59.7708H210.554Z" fill="white"/>
<path d="M232.818 59.3071V70.0949H232.265V60.2345L229.125 70.0949H228.541L225.401 60.2818V70.0949H224.888V59.3071H225.673L228.863 69.2906L232.043 59.3071H232.828H232.818Z" fill="white"/>
<path d="M248.709 59.3071L246.024 66.2117V70.0949H245.438V66.2591L242.754 59.3071H243.368L245.807 65.5392L248.18 59.3071H248.709Z" fill="white"/>
</svg>
